HIERARCHY
ROOT Hips
{
	OFFSET 0.000000 83.214638 0.000000
	CHANNELS 6 Xposition Yposition Zposition Xrotation Yrotation Zrotation
	JOINT Pelvis
	{
		OFFSET 0.000000 0.000000 0.000000
		CHANNELS 3 Xrotation Yrotation Zrotation
		JOINT LeftUpLeg
		{
			OFFSET 8.479700 -4.795502 -0.379100
			CHANNELS 3 Xrotation Yrotation Zrotation
			JOINT LeftLeg
			{
				OFFSET 0.024144 -32.555107 0.112900
				CHANNELS 3 Xrotation Yrotation Zrotation
				JOINT LeftFoot
				{
					OFFSET -0.024144 -32.638630 -3.012600
					CHANNELS 3 Xrotation Yrotation Zrotation
					JOINT LeftToeBase
					{
						OFFSET 0.970200 -13.225400 11.864200
						CHANNELS 3 Xrotation Yrotation Zrotation
						End Site
						{
							OFFSET 0.000000 12.319262 0.000000
						}
					}
					JOINT LFootTongue
					{
						OFFSET 1.142400 -1.059800 6.665200
						CHANNELS 3 Xrotation Yrotation Zrotation
						End Site
						{
							OFFSET 0.000000 12.319262 0.000000
						}
					}
				}
				JOINT LeftPantLeg
				{
					OFFSET 0.918482 -16.533964 -2.284700
					CHANNELS 3 Xrotation Yrotation Zrotation
					End Site
					{
						OFFSET 0.350399 24.744368 0.000000
					}
				}
			}
		}
		JOINT RightUpLeg
		{
			OFFSET -8.479700 -4.795502 -0.379100
			CHANNELS 3 Xrotation Yrotation Zrotation
			JOINT RightLeg
			{
				OFFSET -0.023144 -32.555092 0.112900
				CHANNELS 3 Xrotation Yrotation Zrotation
				JOINT RightFoot
				{
					OFFSET 0.023144 -32.638641 -3.012700
					CHANNELS 3 Xrotation Yrotation Zrotation
					JOINT RightToeBase
					{
						OFFSET -0.970200 -13.225400 11.864200
						CHANNELS 3 Xrotation Yrotation Zrotation
						End Site
						{
							OFFSET 0.000000 12.319244 0.000000
						}
					}
					JOINT RFootTongue
					{
						OFFSET -1.142200 -1.059800 6.665200
						CHANNELS 3 Xrotation Yrotation Zrotation
						End Site
						{
							OFFSET 0.000000 12.319243 0.000000
						}
					}
				}
				JOINT RightPantLeg
				{
					OFFSET -0.919482 -16.533978 -2.284800
					CHANNELS 3 Xrotation Yrotation Zrotation
					End Site
					{
						OFFSET -0.350400 24.744419 0.000000
					}
				}
			}
		}
	}
	JOINT Spine
	{
		OFFSET 0.000000 7.722000 1.166200
		CHANNELS 3 Xrotation Yrotation Zrotation
		JOINT Spine1
		{
			OFFSET 0.000000 12.024101 0.248800
			CHANNELS 3 Xrotation Yrotation Zrotation
			JOINT Spine2
			{
				OFFSET 0.000000 11.502998 -0.491200
				CHANNELS 3 Xrotation Yrotation Zrotation
				JOINT Neck
				{
					OFFSET 0.000000 18.430702 -3.123100
					CHANNELS 3 Xrotation Yrotation Zrotation
					JOINT Head
					{
						OFFSET 0.000000 9.051102 1.034000
						CHANNELS 3 Xrotation Yrotation Zrotation
						JOINT HairB
						{
							OFFSET 0.208400 24.786102 24.822300
							CHANNELS 3 Xrotation Yrotation Zrotation
							End Site
							{
								OFFSET 0.000000 32.263779 0.000000
							}
						}
						JOINT HairA
						{
							OFFSET -7.081100 24.428299 23.196600
							CHANNELS 3 Xrotation Yrotation Zrotation
							End Site
							{
								OFFSET 0.000000 32.263779 0.000000
							}
						}
						JOINT Hat
						{
							OFFSET 16.728800 15.048294 -15.439601
							CHANNELS 3 Xrotation Yrotation Zrotation
							End Site
							{
								OFFSET 0.000000 32.263779 0.000000
							}
						}
					}
				}
				JOINT LeftShoulder
				{
					OFFSET 6.197800 13.665199 -4.064700
					CHANNELS 3 Xrotation Yrotation Zrotation
					JOINT LeftArm
					{
						OFFSET 7.778100 -0.187103 -1.709300
						CHANNELS 3 Xrotation Yrotation Zrotation
						JOINT LeftForeArm
						{
							OFFSET 22.049376 0.000000 0.000000
							CHANNELS 3 Xrotation Yrotation Zrotation
							JOINT LeftHand
							{
								OFFSET 23.009392 0.000000 0.000000
								CHANNELS 3 Xrotation Yrotation Zrotation
								JOINT LeftHandThumb1
								{
									OFFSET 3.507191 -2.063065 3.133727
									CHANNELS 3 Xrotation Yrotation Zrotation
									JOINT LeftHandThumb2
									{
										OFFSET 3.101337 -1.790558 1.790558
										CHANNELS 3 Xrotation Yrotation Zrotation
										JOINT LeftHandThumb3
										{
											OFFSET 3.058640 -1.765907 1.765906
											CHANNELS 3 Xrotation Yrotation Zrotation
											End Site
											{
												OFFSET -0.415260 3.926476 -0.049563
											}
										}
									}
								}
								JOINT LeftHandIndex1
								{
									OFFSET 11.334419 -0.901459 3.706815
									CHANNELS 3 Xrotation Yrotation Zrotation
									JOINT LeftHandIndex2
									{
										OFFSET 3.283112 0.000000 0.000000
										CHANNELS 3 Xrotation Yrotation Zrotation
										JOINT LeftHandIndex3
										{
											OFFSET 3.323853 0.000000 0.000000
											CHANNELS 3 Xrotation Yrotation Zrotation
											End Site
											{
												OFFSET -1.135597 3.097809 0.402452
											}
										}
									}
								}
								JOINT LeftHandMiddle1
								{
									OFFSET 11.335861 0.000000 0.000000
									CHANNELS 3 Xrotation Yrotation Zrotation
									JOINT LeftHandMiddle2
									{
										OFFSET 3.410492 0.000000 0.000000
										CHANNELS 3 Xrotation Yrotation Zrotation
										JOINT LeftHandMiddle3
										{
											OFFSET 3.312172 0.000000 0.000000
											CHANNELS 3 Xrotation Yrotation Zrotation
											End Site
											{
												OFFSET -1.150200 3.080154 0.400270
											}
										}
									}
								}
								JOINT LeftHandRing1
								{
									OFFSET 11.514786 -0.013176 -3.003090
									CHANNELS 3 Xrotation Yrotation Zrotation
									JOINT LeftHandRing2
									{
										OFFSET 3.053307 0.000000 0.000000
										CHANNELS 3 Xrotation Yrotation Zrotation
										JOINT LeftHandRing3
										{
											OFFSET 3.295807 0.000000 0.000000
											CHANNELS 3 Xrotation Yrotation Zrotation
											End Site
											{
												OFFSET -1.281006 3.013344 0.375733
											}
										}
									}
								}
								JOINT LeftHandPinky1
								{
									OFFSET 10.518692 -0.960396 -5.730441
									CHANNELS 3 Xrotation Yrotation Zrotation
									JOINT LeftHandPinky2
									{
										OFFSET 2.861649 0.000000 0.000000
										CHANNELS 3 Xrotation Yrotation Zrotation
										JOINT LeftHandPinky3
										{
											OFFSET 2.863380 0.000000 0.000000
											CHANNELS 3 Xrotation Yrotation Zrotation
											End Site
											{
												OFFSET -0.843597 2.711159 0.369971
											}
										}
									}
								}
							}
							JOINT LSleeve
							{
								OFFSET 6.676277 -0.344902 -1.011730
								CHANNELS 3 Xrotation Yrotation Zrotation
								End Site
								{
									OFFSET 0.000000 14.885353 0.000000
								}
							}
						}
					}
				}
				JOINT RightShoulder
				{
					OFFSET -6.197800 13.665199 -4.064700
					CHANNELS 3 Xrotation Yrotation Zrotation
					JOINT RightArm
					{
						OFFSET -7.778100 -0.187103 -1.709300
						CHANNELS 3 Xrotation Yrotation Zrotation
						JOINT RightForeArm
						{
							OFFSET -22.049376 0.000000 0.000000
							CHANNELS 3 Xrotation Yrotation Zrotation
							JOINT RightHand
							{
								OFFSET -23.009392 0.000000 0.000000
								CHANNELS 3 Xrotation Yrotation Zrotation
								JOINT RightHandThumb1
								{
									OFFSET -3.507191 -2.063065 3.133727
									CHANNELS 3 Xrotation Yrotation Zrotation
									JOINT RightHandThumb2
									{
										OFFSET -3.101337 -1.790558 1.790558
										CHANNELS 3 Xrotation Yrotation Zrotation
										JOINT RightHandThumb3
										{
											OFFSET -3.058640 -1.765907 1.765906
											CHANNELS 3 Xrotation Yrotation Zrotation
											End Site
											{
												OFFSET 0.415260 3.926476 -0.049563
											}
										}
									}
								}
								JOINT RightHandIndex1
								{
									OFFSET -11.334419 -0.901459 3.706815
									CHANNELS 3 Xrotation Yrotation Zrotation
									JOINT RightHandIndex2
									{
										OFFSET -3.283112 0.000000 0.000000
										CHANNELS 3 Xrotation Yrotation Zrotation
										JOINT RightHandIndex3
										{
											OFFSET -3.323853 0.000000 0.000000
											CHANNELS 3 Xrotation Yrotation Zrotation
											End Site
											{
												OFFSET 1.135597 3.097809 0.402452
											}
										}
									}
								}
								JOINT RightHandMiddle1
								{
									OFFSET -11.335861 0.000000 0.000000
									CHANNELS 3 Xrotation Yrotation Zrotation
									JOINT RightHandMiddle2
									{
										OFFSET -3.410492 0.000000 0.000000
										CHANNELS 3 Xrotation Yrotation Zrotation
										JOINT RightHandMiddle3
										{
											OFFSET -3.312172 0.000000 0.000000
											CHANNELS 3 Xrotation Yrotation Zrotation
											End Site
											{
												OFFSET 1.150200 3.080154 0.400270
											}
										}
									}
								}
								JOINT RightHandRing1
								{
									OFFSET -11.514786 -0.013176 -3.003090
									CHANNELS 3 Xrotation Yrotation Zrotation
									JOINT RightHandRing2
									{
										OFFSET -3.053307 0.000000 0.000000
										CHANNELS 3 Xrotation Yrotation Zrotation
										JOINT RightHandRing3
										{
											OFFSET -3.295807 0.000000 0.000000
											CHANNELS 3 Xrotation Yrotation Zrotation
											End Site
											{
												OFFSET 1.281006 3.013344 0.375733
											}
										}
									}
								}
								JOINT RightHandPinky1
								{
									OFFSET -10.518692 -0.960396 -5.730441
									CHANNELS 3 Xrotation Yrotation Zrotation
									JOINT RightHandPinky2
									{
										OFFSET -2.861649 0.000000 0.000000
										CHANNELS 3 Xrotation Yrotation Zrotation
										JOINT RightHandPinky3
										{
											OFFSET -2.863380 0.000000 0.000000
											CHANNELS 3 Xrotation Yrotation Zrotation
											End Site
											{
												OFFSET 0.843597 2.711159 0.369971
											}
										}
									}
								}
							}
							JOINT RSleeve
							{
								OFFSET -6.676277 -0.344902 -1.011730
								CHANNELS 3 Xrotation Yrotation Zrotation
								End Site
								{
									OFFSET 0.000000 14.885353 0.000000
								}
							}
						}
					}
				}
				JOINT Backpack
				{
					OFFSET 0.000000 -2.471497 36.677502
					CHANNELS 3 Xrotation Yrotation Zrotation
					End Site
					{
						OFFSET 0.000000 20.427315 0.000000
					}
				}
				JOINT Hood
				{
					OFFSET 0.000000 18.754097 -10.431000
					CHANNELS 3 Xrotation Yrotation Zrotation
					JOINT Hood1
					{
						OFFSET 0.000000 -5.011002 -7.685901
						CHANNELS 3 Xrotation Yrotation Zrotation
						End Site
						{
							OFFSET 0.000000 9.175140 0.000000
						}
					}
				}
				JOINT LHoodieString
				{
					OFFSET 5.250500 16.397697 3.089900
					CHANNELS 3 Xrotation Yrotation Zrotation
					JOINT LHoodieString1
					{
						OFFSET 0.257700 -6.364304 3.694600
						CHANNELS 3 Xrotation Yrotation Zrotation
						JOINT LHoodieString2
						{
							OFFSET 0.000000 -9.643799 2.679100
							CHANNELS 3 Xrotation Yrotation Zrotation
							End Site
							{
								OFFSET 0.000000 10.009018 0.000000
							}
						}
					}
				}
				JOINT RHoodieString
				{
					OFFSET -5.250500 16.397697 3.089900
					CHANNELS 3 Xrotation Yrotation Zrotation
					JOINT RHoodieString1
					{
						OFFSET -0.257700 -6.364304 3.694600
						CHANNELS 3 Xrotation Yrotation Zrotation
						JOINT RHoodieString2
						{
							OFFSET 0.000000 -9.643799 2.679100
							CHANNELS 3 Xrotation Yrotation Zrotation
							End Site
							{
								OFFSET 0.000000 10.009018 0.000000
							}
						}
					}
				}
			}
			JOINT LBackpack_Strap
			{
				OFFSET 15.223200 -7.719803 -6.610900
				CHANNELS 3 Xrotation Yrotation Zrotation
				End Site
				{
					OFFSET 0.000000 16.040596 0.000000
				}
			}
			JOINT RBackpack_Strap
			{
				OFFSET -15.223000 -7.719803 -6.610900
				CHANNELS 3 Xrotation Yrotation Zrotation
				End Site
				{
					OFFSET 0.000000 16.040596 0.000000
				}
			}
		}
	}
	JOINT BoyFacialAnim_Joint
	{
		OFFSET 1.000000 -82.208099 -1.550900
		CHANNELS 3 Xrotation Yrotation Zrotation
		End Site
		{
			OFFSET 0.000000 30.012791 0.000000
		}
	}
}
MOTION
Frames: 4
Frame Time: 0.033333
0.929963 59.394226 98.002655 -2.279002 -16.807738 -1.079922 0.000000 0.000002 0.000000 -41.308721 18.012114 -0.766095 100.157853 4.715410 2.055160 21.661554 -0.624360 -1.635720 0.000001 0.000000 -0.000000 0.000001 0.000000 -0.000000 -0.000002 0.000000 0.000000 -70.825312 -5.658258 10.193821 61.553173 -8.338401 -10.081587 10.571530 -13.779309 0.152688 0.000000 -0.000000 -0.000000 0.000000 -0.000000 -0.000000 0.000000 -0.000001 -0.000000 54.823302 -3.821570 9.327729 6.879476 -0.214497 0.811011 6.881356 -0.223926 0.791206 -15.773854 2.165529 -2.467665 -19.369185 4.011566 11.983729 -0.000001 0.000001 -0.000000 -0.000001 0.000001 -0.000000 -0.000001 0.000001 -0.000000 13.919878 -27.074837 23.032033 -106.282832 -9.946005 -31.396416 0.000307 -77.963433 0.000281 -126.585330 -7.155001 32.989605 4.709219 9.560361 3.111991 19.473184 -1.474892 7.636917 -0.000003 0.000001 -0.000002 -0.212816 3.933726 -36.747138 2.942142 5.078911 -60.144617 -0.000000 0.000000 -0.000003 0.405915 5.507060 -52.453175 3.387142 5.308595 -65.057449 0.000005 0.000000 -0.000001 -0.074378 5.736786 -61.061420 4.055019 5.569494 -72.094907 -0.000003 0.000000 -0.000000 -6.565566 4.545138 -72.425209 3.299637 5.267227 -64.107828 -0.000002 -0.000001 -0.000004 -0.000002 0.000002 0.000000 0.258039 28.005406 11.116074 -70.576884 46.503001 41.827344 0.000086 109.459218 -0.000085 -36.348638 -35.150483 -24.627879 8.377165 -4.904126 11.022002 21.620194 -18.183888 -18.379216 -0.000004 0.000001 0.000000 -0.920033 1.683587 12.434991 0.748127 -2.533458 32.898265 -0.000001 -0.000001 -0.000000 3.413053 -7.186268 51.650239 6.296816 -4.359577 110.634694 -0.000000 0.000000 0.000002 -3.349047 -2.600437 57.010582 5.440871 -4.590882 99.698168 -0.000000 -0.000001 -0.000001 -3.996435 -3.303922 64.593857 4.058845 -4.618681 82.610530 -0.000001 -0.000000 0.000002 -0.000001 -0.000002 -0.000002 0.000000 -0.000000 0.000001 0.000000 -0.000000 0.000001 0.000000 -0.000000 0.000001 0.000000 -0.000000 0.000001 0.000000 -0.000000 0.000003 0.000000 0.000000 -0.000000 0.000000 -0.000000 0.000001 0.000000 -0.000000 0.000003 0.000000 0.000000 -0.000000 -0.000001 -0.000000 0.000001 -0.000001 -0.000000 0.000001 0.000000 0.000002 0.000000 
0.675367 59.391136 101.126915 -1.992475 -16.802706 -0.903220 0.000000 -0.000002 -0.000000 -47.241663 17.333270 1.248394 106.251468 4.458583 2.048272 19.529884 -1.875926 -2.902580 0.000000 0.000000 0.000000 0.000000 0.000000 0.000000 -0.000000 0.000000 0.000000 -71.364521 -5.529578 9.870982 67.027652 -8.401379 -10.219903 6.322284 -13.960709 1.497228 0.000000 -0.000003 -0.000000 0.000000 -0.000003 -0.000000 -0.000000 0.000000 -0.000000 54.443042 -3.682546 8.994043 6.829209 -0.159686 0.778331 6.831031 -0.170692 0.754311 -15.487558 2.053105 -2.391890 -19.210254 3.735116 12.232123 0.000003 -0.000002 0.000002 0.000003 -0.000002 0.000002 0.000003 -0.000002 0.000002 14.014927 -26.470518 23.290354 -106.419190 -10.332150 -32.303762 -0.000345 -76.937669 -0.000349 -126.326985 -6.700170 31.229449 4.709220 9.560362 3.111992 19.473184 -1.474896 7.636919 0.000000 0.000003 0.000000 -0.212816 3.933725 -36.747138 2.942144 5.078910 -60.144624 -0.000001 -0.000001 -0.000000 0.405914 5.507063 -52.453172 3.387141 5.308592 -65.057443 0.000004 0.000002 -0.000001 -0.074379 5.736789 -61.061420 4.055017 5.569498 -72.094907 -0.000001 0.000000 -0.000002 -6.565569 4.545140 -72.425215 3.299640 5.267228 -64.107828 -0.000000 -0.000000 -0.000000 0.000002 0.000003 0.000004 0.401715 28.142411 10.548828 -70.425917 45.678219 41.095534 0.000177 109.430893 -0.000191 -36.030996 -34.101734 -24.348252 8.377164 -4.904125 11.022001 21.620197 -18.183890 -18.379218 -0.000001 0.000001 0.000001 -0.920033 1.683586 12.434988 0.748125 -2.533460 32.898269 -0.000001 0.000000 0.000002 3.413053 -7.186267 51.650242 6.296816 -4.359578 110.634694 0.000001 0.000000 0.000001 -3.349046 -2.600436 57.010585 5.440872 -4.590881 99.698168 -0.000000 -0.000001 0.000004 -3.996433 -3.303922 64.593857 4.058844 -4.618684 82.610530 -0.000001 -0.000001 -0.000000 -0.000000 -0.000003 0.000000 -0.000002 0.000001 -0.000000 -0.000002 0.000001 -0.000000 -0.000002 0.000001 -0.000000 -0.000002 0.000001 -0.000000 -0.000002 0.000001 -0.000000 -0.000001 0.000001 -0.000004 -0.000002 0.000001 -0.000000 -0.000002 0.000001 -0.000000 -0.000001 0.000001 -0.000004 0.000000 -0.000000 -0.000000 0.000000 -0.000000 -0.000000 0.000000 -0.000002 -0.000000 
0.450146 59.609261 104.233154 -1.628126 -16.979611 -0.470089 0.000000 0.000001 -0.000000 -55.702296 15.924663 3.936489 112.253080 4.913587 2.037478 14.167000 -2.572818 -2.742769 0.000001 -0.000000 0.000000 0.000001 -0.000000 0.000000 0.000002 0.000001 -0.000000 -71.256604 -5.212502 9.442526 71.671122 -8.340942 -10.206160 1.504737 -14.232213 2.345030 -0.000000 -0.000002 0.000000 -0.000000 -0.000002 0.000000 -0.000000 0.000001 0.000000 54.465725 -3.897268 8.262219 6.859122 -0.119825 0.712124 6.860887 -0.134395 0.685944 -15.603613 2.024858 -2.358355 -19.085061 3.669193 12.621414 -0.000002 0.000000 -0.000002 -0.000002 0.000000 -0.000002 -0.000002 0.000000 -0.000002 14.050448 -26.018573 23.376034 -107.550911 -11.308842 -32.931788 0.000209 -76.094735 0.000194 -125.896028 -6.236064 31.061696 4.709220 9.560365 3.111991 19.473184 -1.474894 7.636919 -0.000002 0.000005 -0.000000 -0.212816 3.933720 -36.747135 2.942143 5.078915 -60.144624 -0.000002 0.000001 -0.000003 0.405913 5.507065 -52.453172 3.387139 5.308594 -65.057443 -0.000001 -0.000001 0.000000 -0.074379 5.736786 -61.061420 4.055021 5.569494 -72.094907 -0.000003 -0.000002 -0.000001 -6.565568 4.545140 -72.425209 3.299637 5.267227 -64.107835 0.000002 0.000001 -0.000004 0.000001 -0.000002 -0.000001 0.444059 28.461040 10.367151 -71.495852 45.381956 41.233801 -0.000014 109.495405 -0.000008 -36.143575 -34.113674 -24.334972 8.377164 -4.904125 11.022002 21.620195 -18.183888 -18.379218 -0.000001 0.000000 0.000001 -0.920032 1.683586 12.434992 0.748125 -2.533460 32.898269 -0.000001 0.000001 0.000002 3.413054 -7.186267 51.650249 6.296815 -4.359580 110.634694 -0.000000 0.000001 0.000002 -3.349045 -2.600436 57.010588 5.440872 -4.590884 99.698161 0.000001 0.000000 0.000004 -3.996433 -3.303919 64.593864 4.058843 -4.618682 82.610530 -0.000000 -0.000000 0.000000 -0.000001 -0.000001 -0.000000 0.000001 -0.000000 0.000000 0.000001 -0.000000 0.000000 0.000001 -0.000000 0.000000 0.000001 -0.000000 0.000000 0.000001 -0.000000 0.000000 0.000001 -0.000000 0.000000 0.000001 -0.000000 0.000000 0.000001 -0.000000 0.000000 0.000001 -0.000000 0.000000 0.000003 0.000001 -0.000000 0.000003 0.000001 -0.000000 0.000000 0.000001 -0.000000 
0.210168 59.894554 107.267303 -1.243587 -17.161508 -0.305150 -0.000000 -0.000000 -0.000000 -65.535016 14.270522 6.606693 114.976481 6.742849 2.019488 13.087428 -1.716988 1.573846 -0.000000 0.000000 -0.000000 -0.000000 0.000000 -0.000000 0.000001 0.000000 -0.000000 -70.550916 -4.954950 9.180969 75.448148 -8.538183 -10.163868 -3.115247 -14.409862 3.063984 -0.000000 0.000000 -0.000000 -0.000000 0.000000 -0.000000 -0.000000 0.000000 -0.000000 54.699037 -4.072828 7.677238 6.917255 -0.127047 0.646668 6.918738 -0.143212 0.619939 -15.928988 2.076073 -2.419110 -18.968521 3.739742 13.171253 -0.000003 0.000001 -0.000000 -0.000003 0.000001 -0.000000 -0.000003 0.000001 -0.000000 13.984756 -25.539254 23.272193 -108.963476 -12.466572 -33.493455 0.000056 -75.372060 0.000021 -125.373614 -5.830117 31.520982 4.709219 9.560364 3.111991 19.473187 -1.474890 7.636918 -0.000001 0.000004 -0.000001 -0.212816 3.933722 -36.747135 2.942146 5.078909 -60.144617 0.000004 0.000001 -0.000002 0.405915 5.507065 -52.453179 3.387135 5.308594 -65.057449 0.000005 0.000001 0.000001 -0.074378 5.736788 -61.061420 4.055018 5.569496 -72.094901 -0.000004 0.000000 -0.000000 -6.565565 4.545141 -72.425215 3.299641 5.267227 -64.107828 0.000001 -0.000002 -0.000006 0.000003 0.000003 0.000003 0.423498 28.863119 10.416977 -73.050991 45.289209 41.978657 0.000085 109.498949 -0.000114 -36.174717 -34.499026 -24.133311 8.377165 -4.904125 11.022003 21.620192 -18.183888 -18.379219 0.000002 -0.000001 0.000001 -0.920034 1.683586 12.434990 0.748125 -2.533460 32.898272 -0.000001 -0.000000 0.000003 3.413054 -7.186268 51.650242 6.296815 -4.359578 110.634694 0.000000 0.000000 0.000003 -3.349046 -2.600437 57.010585 5.440873 -4.590883 99.698161 -0.000001 -0.000001 0.000009 -3.996435 -3.303922 64.593864 4.058844 -4.618680 82.610530 -0.000001 0.000000 0.000004 0.000001 0.000000 0.000001 -0.000000 -0.000000 -0.000000 -0.000000 -0.000000 -0.000000 -0.000000 -0.000000 -0.000000 -0.000000 -0.000000 -0.000000 -0.000000 -0.000000 -0.000000 -0.000000 0.000000 -0.000000 -0.000000 -0.000000 -0.000000 -0.000000 -0.000000 -0.000000 -0.000000 0.000000 -0.000000 -0.000000 0.000001 -0.000000 -0.000000 0.000001 -0.000000 -0.000000 -0.000000 -0.000000 
